<?xml version="1.0" encoding="UTF-8" standalone="no"?>
<svg
   xmlns:dc="http://purl.org/dc/elements/1.1/"
   xmlns:cc="http://creativecommons.org/ns#"
   xmlns:rdf="http://www.w3.org/1999/02/22-rdf-syntax-ns#"
   xmlns:svg="http://www.w3.org/2000/svg"
   xmlns="http://www.w3.org/2000/svg"
   xmlns:sodipodi="http://sodipodi.sourceforge.net/DTD/sodipodi-0.dtd"
   xmlns:inkscape="http://www.inkscape.org/namespaces/inkscape"
   version="1.1"
   id="svg2"
   xml:space="preserve"
   width="211.75822"
   height="105.21079"
   viewBox="0 0 211.75822 105.21079"
   inkscape:version="0.91 r13725"
   sodipodi:docname="gnap_logo.svg"><sodipodi:namedview
     pagecolor="#ffffff"
     bordercolor="#666666"
     borderopacity="1"
     objecttolerance="10"
     gridtolerance="10"
     guidetolerance="10"
     inkscape:pageopacity="0"
     inkscape:pageshadow="2"
     inkscape:window-width="1228"
     inkscape:window-height="721"
     id="namedview23"
     showgrid="false"
     inkscape:zoom="2.3708445"
     inkscape:cx="33.352029"
     inkscape:cy="-9.0123171"
     inkscape:window-x="0"
     inkscape:window-y="0"
     inkscape:window-maximized="0"
     inkscape:current-layer="svg2" /><metadata
     id="metadata8"><rdf:RDF><cc:Work
         rdf:about=""><dc:format>image/svg+xml</dc:format><dc:type
           rdf:resource="http://purl.org/dc/dcmitype/StillImage" /><dc:title /></cc:Work></rdf:RDF></metadata><defs
     id="defs6"><clipPath
       clipPathUnits="userSpaceOnUse"
       id="clipPath18"><path
         d="m 0,1080 1920,0 L 1920,0 0,0 Z"
         id="path16" /></clipPath><clipPath
       clipPathUnits="userSpaceOnUse"
       id="clipPath326"><path
         d="m 1092.521,821.129 c 0,-25.173 20.407,-45.581 45.581,-45.581 l 0,0 c 25.175,0 45.582,20.408 45.582,45.581 l 0,0 c 0,25.174 -20.407,45.583 -45.582,45.583 l 0,0 c -25.174,0 -45.581,-20.409 -45.581,-45.583"
         id="path324" /></clipPath><clipPath
       clipPathUnits="userSpaceOnUse"
       id="clipPath340"><path
         d="m 1092.521,821.129 c 0,-25.173 20.407,-45.581 45.581,-45.581 l 0,0 c 25.175,0 45.582,20.408 45.582,45.581 l 0,0 c 0,25.174 -20.407,45.583 -45.582,45.583 l 0,0 c -25.174,0 -45.581,-20.409 -45.581,-45.583"
         id="path338" /></clipPath><clipPath
       clipPathUnits="userSpaceOnUse"
       id="clipPath348"><path
         d="m 1092.52,866.711 91.16,0 0,-91.163 -91.16,0 z"
         id="path346" /></clipPath><clipPath
       clipPathUnits="userSpaceOnUse"
       id="clipPath364"><path
         d="m 0,1080 1920,0 L 1920,0 0,0 Z"
         id="path362" /></clipPath><clipPath
       clipPathUnits="userSpaceOnUse"
       id="clipPath376"><path
         d="m 1423.146,821.129 c 0,-25.173 20.406,-45.581 45.581,-45.581 l 0,0 c 25.174,0 45.582,20.408 45.582,45.581 l 0,0 c 0,25.174 -20.408,45.583 -45.582,45.583 l 0,0 c -25.175,0 -45.581,-20.409 -45.581,-45.583"
         id="path374" /></clipPath></defs><g
     transform="matrix(1.3333333,0,0,-1.3333333,105.87873,24.796001)"
     id="g36"
     style="fill:#000000"><path
       id="path38"
       style="fill:#000000;fill-opacity:1;fill-rule:nonzero;stroke:none"
       d="m 0,0 c 11.52,0 20.857,-9.338 20.857,-20.857 0,-11.519 -9.337,-20.857 -20.857,-20.857 -11.519,0 -20.857,9.338 -20.857,20.857 C -20.857,-9.338 -11.519,0 0,0" /></g><g
     transform="matrix(1.3333333,0,0,-1.3333333,137.51423,83.573331)"
     id="g40"
     style="fill:#000000"><path
       id="path42"
       style="fill:#000000;fill-opacity:1;fill-rule:nonzero;stroke:none"
       d="M 0,0 23.227,23.226 0.001,46.452 16.229,62.68 39.454,39.454 55.683,23.226 39.454,6.998 16.229,-16.228 Z" /></g><g
     transform="matrix(1.3333333,0,0,-1.3333333,52.605332,105.21079)"
     id="g44"
     style="fill:#000000"><path
       id="path46"
       style="fill:#000000;fill-opacity:1;fill-rule:nonzero;stroke:none"
       d="M 0,0 -23.226,23.226 -39.454,39.454 -23.226,55.682 0,78.908 16.229,62.68 -6.997,39.454 16.229,16.228 Z" /></g></svg>