<?xml version="1.0" encoding="UTF-8" standalone="no"?>
<svg
   xmlns:dc="http://purl.org/dc/elements/1.1/"
   xmlns:cc="http://creativecommons.org/ns#"
   xmlns:rdf="http://www.w3.org/1999/02/22-rdf-syntax-ns#"
   xmlns:svg="http://www.w3.org/2000/svg"
   xmlns="http://www.w3.org/2000/svg"
   xmlns:sodipodi="http://sodipodi.sourceforge.net/DTD/sodipodi-0.dtd"
   xmlns:inkscape="http://www.inkscape.org/namespaces/inkscape"
   version="1.1"
   id="svg2"
   xml:space="preserve"
   width="181.05466"
   height="181.056"
   viewBox="0 0 181.05466 181.056"
   inkscape:version="0.91 r13725"
   sodipodi:docname="gnap_main.svg"><sodipodi:namedview
     pagecolor="#ffffff"
     bordercolor="#666666"
     borderopacity="1"
     objecttolerance="10"
     gridtolerance="10"
     guidetolerance="10"
     inkscape:pageopacity="0"
     inkscape:pageshadow="2"
     inkscape:window-width="1231"
     inkscape:window-height="751"
     id="namedview21"
     showgrid="false"
     inkscape:zoom="3.6867533"
     inkscape:cx="94.953047"
     inkscape:cy="72.453148"
     inkscape:window-x="0"
     inkscape:window-y="0"
     inkscape:window-maximized="0"
     inkscape:current-layer="svg2" /><metadata
     id="metadata8"><rdf:RDF><cc:Work
         rdf:about=""><dc:format>image/svg+xml</dc:format><dc:type
           rdf:resource="http://purl.org/dc/dcmitype/StillImage" /><dc:title /></cc:Work></rdf:RDF></metadata><defs
     id="defs6"><clipPath
       clipPathUnits="userSpaceOnUse"
       id="clipPath18"><path
         d="m 0,1080 1920,0 L 1920,0 0,0 Z"
         id="path16" /></clipPath><clipPath
       clipPathUnits="userSpaceOnUse"
       id="clipPath326"><path
         d="m 1092.521,821.129 c 0,-25.173 20.407,-45.581 45.581,-45.581 l 0,0 c 25.175,0 45.582,20.408 45.582,45.581 l 0,0 c 0,25.174 -20.407,45.583 -45.582,45.583 l 0,0 c -25.174,0 -45.581,-20.409 -45.581,-45.583"
         id="path324" /></clipPath><clipPath
       clipPathUnits="userSpaceOnUse"
       id="clipPath340"><path
         d="m 1092.521,821.129 c 0,-25.173 20.407,-45.581 45.581,-45.581 l 0,0 c 25.175,0 45.582,20.408 45.582,45.581 l 0,0 c 0,25.174 -20.407,45.583 -45.582,45.583 l 0,0 c -25.174,0 -45.581,-20.409 -45.581,-45.583"
         id="path338" /></clipPath><clipPath
       clipPathUnits="userSpaceOnUse"
       id="clipPath348"><path
         d="m 1092.52,866.711 91.16,0 0,-91.163 -91.16,0 z"
         id="path346" /></clipPath><clipPath
       clipPathUnits="userSpaceOnUse"
       id="clipPath364"><path
         d="m 0,1080 1920,0 L 1920,0 0,0 Z"
         id="path362" /></clipPath><clipPath
       clipPathUnits="userSpaceOnUse"
       id="clipPath376"><path
         d="m 1423.146,821.129 c 0,-25.173 20.406,-45.581 45.581,-45.581 l 0,0 c 25.174,0 45.582,20.408 45.582,45.581 l 0,0 c 0,25.174 -20.408,45.583 -45.582,45.583 l 0,0 c -25.175,0 -45.581,-20.409 -45.581,-45.583"
         id="path374" /></clipPath></defs><g
     transform="matrix(1.3333333,0,0,-1.3333333,181.05466,90.527998)"
     id="g132"
     style="fill:#000000"><path
       id="path134"
       style="fill:#000000;fill-opacity:1;fill-rule:nonzero;stroke:none"
       d="m 0,0 c 0,-37.497 -30.398,-67.896 -67.896,-67.896 -37.497,0 -67.895,30.399 -67.895,67.896 0,37.498 30.398,67.896 67.895,67.896 C -30.398,67.896 0,37.498 0,0" /></g><g
     style="fill:#25a25a;fill-opacity:1"
     transform="matrix(1.3333333,0,0,-1.3333333,144.4844,47.318268)"
     id="g136"><path
       id="path138"
       style="fill:#25a25a;fill-opacity:1;fill-rule:nonzero;stroke:none"
       d="m 0,0 -41.844,0 -29.238,0 0,-29.237 0,-41.844 29.238,0 0,41.844 41.844,0 z" /></g></svg>